<?xml version="1.0" encoding="utf-8"?>
<!-- Generator: Adobe Illustrator 19.0.0, SVG Export Plug-In . SVG Version: 6.00 Build 0)  -->
<svg version="1.1" id="Layer_1" xmlns="http://www.w3.org/2000/svg" xmlns:xlink="http://www.w3.org/1999/xlink" x="0px" y="0px"
	 viewBox="0 0 500 500" style="enable-background:new 0 0 500 500;" xml:space="preserve">
<style type="text/css">
	.st0{fill:#01798A;}
	.st1{fill:#024381;}
	.st2{fill:#DD0228;}
	.st3{fill:#FFFFFF;}
	.st4{fill:#E02F41;}
	.st5{fill:#2E4F7D;}
</style>
<g id="XMLID_1_">
	<path id="XMLID_3_" class="st0" d="M414.5,133.5l-89.9,0h0l-0.2,0c-12.3,0.4-27.7,10.3-30.5,22.5L251.3,344
		c-2.8,12.3,4.8,22.4,17.1,22.5h94.4c12.1-0.6,23.8-10.4,26.6-22.5L431.9,156C434.8,143.6,427,133.5,414.5,133.5"/>
	<path id="XMLID_4_" class="st1" d="M251.3,344L293.9,156c2.8-12.2,18.2-22.1,30.5-22.5l-35.7,0l-64.4,0
		c-12.4,0.3-28,10.2-30.8,22.5L151,344c-2.8,12.3,4.8,22.4,17.1,22.5h100.4C256.2,366.4,248.5,356.4,251.3,344"/>
	<path id="XMLID_5_" class="st2" d="M151,344L193.5,156c2.8-12.3,18.4-22.3,30.8-22.5l-82.5,0c-12.5,0-28.4,10.1-31.3,22.6L68,344
		c-0.3,1.1-0.4,2.3-0.5,3.4v3.5c0.8,9,7.7,15.5,17.6,15.7h83C155.8,366.4,148.2,356.4,151,344"/>
	<path id="XMLID_12_" class="st3" d="M226,270.5h1.6c1.4,0,2.4-0.5,2.9-1.4l4.1-6.1h10.9l-2.3,4h13l-1.7,6.1h-15.5
		c-1.8,2.7-4,3.9-6.6,3.8h-8.1L226,270.5 M224.2,279.3h28.5l-1.8,6.6h-11.5l-1.8,6.4h11.2L247,299h-11.2l-2.6,9.5
		c-0.6,1.6,0.2,2.3,2.5,2.1h9.1l-1.7,6.2h-17.5c-3.3,0-4.4-1.9-3.4-5.7l3.3-12.1h-7.1l1.8-6.6h7.1l1.7-6.4h-6.8L224.2,279.3z
		 M269.8,262.9l-0.4,3.9c0,0,5.4-4,10.3-4h18.1l-6.9,25c-0.6,2.9-3,4.3-7.4,4.3h-20.5l-4.8,17.6c-0.3,0.9,0.1,1.4,1.1,1.4h4
		l-1.5,5.5h-10.2c-3.9,0-5.6-1.2-4.9-3.6l13.6-50H269.8L269.8,262.9z M285.1,270h-16.1l-1.9,6.7c0,0,2.7-1.9,7.2-2
		c4.5-0.1,9.6,0,9.6,0L285.1,270z M279.2,285.7c1.2,0.2,1.9-0.3,1.9-1.4l1-3.6H266l-1.4,5H279.2z M268.3,293.7h9.3l-0.2,4h2.5
		c1.3,0,1.9-0.4,1.9-1.2l0.7-2.6h7.7l-1,3.8c-0.9,3.2-3.2,4.8-7,5h-5l0,6.9c-0.1,1.1,0.9,1.7,3,1.7h4.7l-1.5,5.5h-11.2
		c-3.1,0.1-4.7-1.3-4.6-4.5L268.3,293.7"/>
	<path id="XMLID_13_" class="st3" d="M155.5,229.6c-1.3,6.2-4.2,10.9-8.7,14.3c-4.5,3.3-10.3,5-17.4,5c-6.7,0-11.6-1.7-14.7-5.1
		c-2.2-2.4-3.2-5.5-3.2-9.2c0-1.5,0.2-3.2,0.6-5l7.6-36.5H131l-7.5,36.1c-0.2,1-0.3,1.9-0.3,2.8c0,1.8,0.4,3.4,1.4,4.5
		c1.4,1.8,3.6,2.6,6.6,2.6c3.5,0,6.4-0.9,8.7-2.6c2.2-1.7,3.7-4.2,4.4-7.3l7.5-36.1h11.4L155.5,229.6"/>
	<path id="XMLID_16_" class="st3" d="M203.5,215.3h9l-7,32.6h-8.9L203.5,215.3 M206.4,203.4h9l-1.7,7.9h-9L206.4,203.4"/>
	<path id="XMLID_19_" class="st3" d="M220.4,245.4c-2.3-2.2-3.5-5.3-3.5-9.1c0-0.7,0-1.4,0.1-2.2c0.1-0.8,0.2-1.6,0.3-2.4
		c1.1-5.3,3.3-9.5,6.8-12.6c3.5-3.1,7.7-4.7,12.6-4.7c4,0,7.2,1.1,9.5,3.4c2.3,2.3,3.5,5.3,3.5,9.2c0,0.7-0.1,1.4-0.1,2.3
		c-0.1,0.8-0.2,1.6-0.4,2.4c-1,5.2-3.3,9.4-6.8,12.4c-3.5,3.1-7.7,4.6-12.5,4.6C225.9,248.7,222.7,247.6,220.4,245.4 M237.5,238.9
		c1.6-1.7,2.7-4.3,3.4-7.8c0.1-0.5,0.2-1.1,0.3-1.7c0.1-0.6,0.1-1.1,0.1-1.5c0-2-0.5-3.6-1.5-4.7c-1-1.1-2.5-1.7-4.3-1.7
		c-2.5,0-4.5,0.9-6.1,2.6c-1.6,1.7-2.7,4.4-3.4,7.9c-0.1,0.5-0.2,1.1-0.3,1.6c-0.1,0.5-0.1,1-0.1,1.5c0,2,0.5,3.5,1.5,4.6
		c1,1.1,2.5,1.6,4.4,1.6C233.9,241.5,235.9,240.6,237.5,238.9"/>
	<polyline id="XMLID_20_" class="st4" points="324.6,133.5 288.6,133.4 324.4,133.5 324.6,133.5 	"/>
	<path id="XMLID_21_" class="st5" d="M288.6,133.4l-63.9,0c-0.2,0-0.3,0-0.5,0L288.6,133.4"/>
	<path id="XMLID_28_" class="st3" d="M307.9,270.8l2.2-7.6H321l-0.5,2.8c0,0,5.6-2.8,9.6-2.8c4,0,13.5,0,13.5,0l-2.1,7.6h-2.1
		l-10.2,35.8h2.1l-2,7.1h-2.1l-0.9,3.1h-10.6l0.9-3.1h-20.9l2-7.1h2.1l10.2-35.8H307.9 M319.7,270.8l-2.8,9.7c0,0,4.8-1.8,8.8-2.3
		c0.9-3.4,2.1-7.4,2.1-7.4H319.7z M315.6,285l-2.8,10.2c0,0,5.3-2.6,8.9-2.8c1-3.9,2.1-7.3,2.1-7.3H315.6z M317.6,306.6l2.1-7.4
		h-8.1l-2.1,7.4H317.6z M344,262.7h10.3l0.4,3.8c-0.1,1,0.5,1.4,1.7,1.4h1.8l-1.8,6.4h-7.5c-2.9,0.1-4.4-1-4.5-3.3L344,262.7z
		 M341,276.5h33.2l-2,6.9h-10.6l-1.8,6.4h10.6l-2,6.9h-11.8l-2.7,4h5.8l1.3,8.1c0.2,0.8,0.9,1.2,2.1,1.2h1.8l-1.9,6.6h-6.3
		c-3.3,0.2-5-0.9-5.1-3.3l-1.5-7.4l-5.2,7.8c-1.2,2.2-3.1,3.2-5.7,3.1h-9.7l1.9-6.6h3c1.2,0,2.3-0.6,3.2-1.7l8.2-11.9h-10.6l2-6.9
		h11.5l1.8-6.4h-11.5L341,276.5"/>
	<path id="XMLID_29_" class="st3" d="M166.1,215.2h8.1l-0.9,4.7l1.2-1.3c2.6-2.8,5.8-4.2,9.5-4.2c3.4,0,5.8,1,7.4,3
		c1.5,2,1.9,4.7,1.2,8.3l-4.4,22.2h-8.3l4-20.1c0.4-2.1,0.3-3.6-0.3-4.6c-0.6-1-1.8-1.5-3.6-1.5c-2.1,0-3.9,0.7-5.4,2
		c-1.5,1.3-2.4,3.2-2.9,5.5l-3.7,18.7h-8.3L166.1,215.2"/>
	<path id="XMLID_30_" class="st3" d="M258.6,215.2h8.1l-0.9,4.7l1.1-1.3c2.6-2.8,5.8-4.2,9.6-4.2c3.4,0,5.9,1,7.4,3
		c1.5,2,1.9,4.7,1.2,8.3l-4.4,22.2h-8.3l4-20.1c0.4-2.1,0.3-3.6-0.3-4.6c-0.7-1-1.8-1.5-3.6-1.5c-2.1,0-3.9,0.7-5.4,2
		c-1.5,1.3-2.4,3.2-2.9,5.5l-3.7,18.7h-8.3L258.6,215.2"/>
	<path id="XMLID_33_" class="st3" d="M298.6,195.1H322c4.5,0,8,1,10.4,3c2.4,2,3.6,4.9,3.6,8.7v0.1c0,0.7,0,1.5-0.1,2.4
		c-0.1,0.9-0.3,1.8-0.5,2.7c-1,5-3.4,9.1-7.1,12.1c-3.7,3.1-8.1,4.6-13.2,4.6h-12.6l-3.9,19.1h-10.9L298.6,195.1 M304.4,219.6h10.4
		c2.7,0,4.9-0.6,6.4-1.9c1.6-1.3,2.6-3.2,3.2-5.8c0.1-0.5,0.1-0.9,0.2-1.3c0-0.4,0.1-0.8,0.1-1.1c0-1.9-0.7-3.2-2-4.1
		c-1.3-0.9-3.4-1.3-6.3-1.3h-8.9L304.4,219.6"/>
	<path id="XMLID_34_" class="st3" d="M384.8,254.1c-3.4,7.3-6.7,11.6-8.7,13.6c-1.9,2-5.8,6.5-15,6.2l0.8-5.6
		c7.7-2.4,11.9-13.1,14.3-17.9l-2.8-35.1l6-0.1h5l0.5,22l9.4-22h9.5L384.8,254.1"/>
	<path id="XMLID_37_" class="st3" d="M358.1,217.9l-3.8,2.6c-4-3.1-7.6-5-14.5-1.8c-9.5,4.4-17.4,38.2,8.7,27.1l1.5,1.8l10.3,0.3
		l6.8-30.7L358.1,217.9 M352.2,234.7c-1.7,4.9-5.3,8.1-8.2,7.2c-2.9-0.9-3.9-5.6-2.2-10.5c1.7-4.9,5.4-8.1,8.2-7.2
		C352.9,225.1,353.9,229.8,352.2,234.7"/>
</g>
</svg>
